<svg xmlns="http://www.w3.org/2000/svg" viewBox="0 0 448 512"><!--!Font Awesome Free 6.6.0 by @fontawesome - https://fontawesome.com License - https://fontawesome.com/license/free Copyright 2024 Fonticons, Inc.--><path d="M298.9 267a48.4 48.4 0 0 0 -24.4-6.2q-19.8 0-33.4 13.3t-13.6 33.4q0 21.2 13.3 34.6t33.4 13.4q20.5 0 34.1-13.8T322 307.5A47.1 47.1 0 0 0 315.9 284 44.1 44.1 0 0 0 298.9 267zM0 32V480H448V32zM374.7 405.3h-53.1V381.4h-.7q-15.8 26.2-55.8 26.2-27.6 0-48.9-13.1a88.3 88.3 0 0 1 -32.9-35.8q-11.6-22.7-11.6-50.9 0-27.6 11.8-50.2a89.9 89.9 0 0 1 32.9-35.8q21.2-13.1 47.7-13.1a80.9 80.9 0 0 1 29.7 5.2q13.3 5.2 25 17V153l55.8-12.1z"/></svg>